<?xml version="1.0" standalone="no"?>
<!DOCTYPE svg PUBLIC "-//W3C//DTD SVG 20010904//EN"
 "http://www.w3.org/TR/2001/REC-SVG-20010904/DTD/svg10.dtd">
<svg version="1.0" xmlns="http://www.w3.org/2000/svg"
 width="300.000000pt" height="300.000000pt" viewBox="0 0 300.000000 300.000000"
 preserveAspectRatio="xMidYMid meet">
<metadata>
Created by potrace 1.10, written by Peter Selinger 2001-2011
</metadata>
<g transform="translate(0.000000,300.000000) scale(0.100000,-0.100000)"
fill="#000000" stroke="none">
<path d="M1489 2555 c-8 -7 -28 -11 -114 -20 -171 -18 -399 -112 -502 -208
-21 -20 -43 -30 -65 -31 -29 -1 -33 -4 -34 -30 -1 -16 -10 -37 -20 -45 -10 -9
-27 -28 -37 -43 -13 -21 -25 -28 -50 -28 -32 0 -57 -15 -57 -33 0 -5 7 -1 16
7 17 18 59 21 69 6 3 -5 40 27 83 72 90 94 168 152 278 207 270 135 613 137
877 5 112 -57 212 -130 290 -215 60 -64 74 -75 85 -63 18 20 29 18 57 -11 17
-16 25 -19 25 -10 0 21 -46 48 -71 42 -12 -3 -22 0 -26 9 -3 8 -9 11 -14 8 -5
-3 -9 2 -9 10 0 9 -7 16 -15 16 -8 0 -15 7 -15 15 0 8 -4 15 -10 15 -5 0 -10
6 -10 14 0 8 -7 16 -15 20 -8 3 -15 10 -15 17 0 6 7 8 16 5 9 -3 12 -2 8 5 -3
6 -17 8 -29 5 -13 -3 -25 -2 -27 3 -3 8 -182 131 -191 131 -3 0 -38 15 -79 34
-86 39 -100 43 -243 66 -60 10 -119 21 -130 25 -11 3 -23 4 -26 0z"/>
<path d="M1334 2486 c-110 -21 -181 -44 -268 -88 -111 -56 -158 -89 -250 -177
-100 -97 -217 -266 -201 -292 4 -5 -1 -30 -11 -55 -12 -33 -20 -42 -27 -32 -6
9 -7 8 -3 -5 3 -10 6 -21 6 -23 0 -16 38 39 43 62 3 16 9 38 13 48 5 14 4 17
-4 12 -16 -10 -15 -1 4 37 31 59 76 119 83 109 4 -6 27 13 54 43 50 57 63 84
22 45 -14 -13 -25 -19 -25 -13 0 14 131 133 145 133 5 0 -15 -23 -45 -50 -30
-27 -51 -50 -47 -50 17 0 116 95 105 101 -15 10 99 81 190 120 141 58 212 72
377 73 165 0 226 -11 365 -65 112 -43 336 -196 317 -216 -4 -4 -27 12 -50 35
-24 23 -46 42 -49 42 -4 0 33 -40 80 -88 48 -48 89 -86 91 -85 3 2 -11 19 -29
38 -18 19 -31 38 -27 41 10 10 125 -137 140 -179 2 -6 7 -9 11 -6 12 12 -91
153 -161 220 -125 120 -285 210 -444 249 -108 27 -306 35 -405 16z"/>
<path d="M1410 2469 c-97 -9 -194 -32 -272 -65 -75 -31 -202 -104 -194 -111 3
-3 19 5 35 16 57 41 202 102 298 127 136 34 311 34 449 -1 106 -27 215 -74
290 -125 25 -18 48 -30 50 -27 3 2 -24 23 -60 46 -172 108 -391 160 -596 140z"/>
<path d="M1330 2436 c-255 -54 -489 -207 -606 -396 -20 -33 -41 -60 -46 -60
-6 0 -7 -7 -4 -16 3 -8 2 -12 -4 -9 -5 3 -11 -4 -14 -17 -16 -81 -16 -85 24
-146 21 -33 35 -63 32 -67 -4 -4 2 -5 13 -3 15 2 22 -5 30 -29 13 -39 21 -48
21 -25 0 9 4 28 8 41 7 19 5 23 -7 18 -25 -9 -37 44 -18 81 4 9 26 55 47 101
29 61 56 102 104 151 62 64 160 140 183 140 5 0 15 6 21 14 29 35 301 101 289
69 -3 -7 -30 -24 -61 -39 -45 -21 -72 -26 -124 -26 -38 0 -68 -3 -68 -7 0 -5
-18 -20 -40 -35 -22 -14 -46 -39 -55 -56 -8 -16 -31 -36 -49 -44 -54 -23 -118
-122 -132 -204 -14 -81 -11 -140 7 -173 36 -63 84 -111 139 -139 55 -28 58
-31 64 -75 4 -24 5 -49 1 -54 -3 -5 -1 -12 5 -16 15 -10 12 -35 -5 -35 -8 0
-15 -7 -15 -15 0 -22 67 -117 75 -106 6 10 55 -6 55 -18 0 -9 -43 -36 -52 -33
-5 1 -8 -8 -8 -20 0 -19 -3 -18 -25 13 -14 19 -29 32 -33 29 -4 -3 -14 11 -23
30 l-17 34 3 -42 c2 -37 0 -42 -19 -42 -15 0 -17 3 -8 9 11 7 11 9 0 13 -23 7
-138 -3 -132 -13 3 -5 -4 -9 -15 -9 -18 0 -104 87 -107 107 0 5 -9 26 -18 48
-10 22 -26 60 -37 84 -10 24 -19 52 -19 62 0 10 -9 34 -21 53 -27 46 -59 135
-59 164 0 25 -15 59 -37 81 -12 11 -13 9 -6 -15 10 -35 9 -73 -2 -221 -6 -84
-5 -119 5 -142 7 -17 16 -31 20 -31 12 0 40 -29 40 -41 0 -17 -29 -9 -45 14
-16 21 -16 21 -10 -23 48 -305 270 -581 562 -699 129 -52 205 -66 368 -66 162
0 221 11 358 66 151 61 310 185 403 315 79 110 143 270 159 399 l7 50 -20 -40
c-11 -22 -25 -62 -32 -90 -51 -218 -207 -424 -415 -550 -59 -35 -90 -46 -67
-23 13 13 17 42 4 34 -4 -2 -13 4 -20 14 -10 16 -6 20 29 34 48 19 53 20 57 8
2 -6 -12 -13 -29 -17 -28 -6 -30 -9 -18 -19 9 -6 14 -17 11 -24 -6 -19 57 14
65 34 3 8 -3 24 -12 35 -18 19 -18 20 1 34 25 19 43 19 65 -1 10 -9 23 -13 29
-9 7 4 1 14 -15 27 -20 16 -23 23 -14 34 15 19 33 18 25 -1 -3 -8 -1 -15 4
-15 6 0 10 -7 10 -15 0 -8 3 -15 8 -15 13 0 42 39 32 45 -5 3 -7 12 -3 20 3
10 -1 15 -13 15 -17 0 -16 2 4 22 21 21 24 22 33 6 12 -21 32 -23 48 -5 8 11
5 17 -14 27 -14 7 -25 17 -25 22 0 12 13 10 38 -8 22 -15 24 -15 37 2 29 37
106 203 120 255 20 74 20 82 -5 69 -13 -7 -20 -7 -20 -1 0 6 10 16 22 22 13 7
18 14 11 16 -6 2 8 22 33 45 24 22 41 45 38 50 -3 5 -6 25 -6 45 0 49 -16 28
-20 -27 -3 -40 -7 -47 -35 -60 -20 -9 -36 -26 -43 -45 -12 -36 -57 -66 -100
-67 -20 -1 -41 -13 -65 -36 -38 -38 -40 -59 -2 -24 13 12 30 22 38 22 8 0 31
9 52 19 41 21 45 17 21 -17 -8 -12 -18 -35 -20 -49 -24 -130 -250 -344 -447
-423 -358 -143 -768 -21 -986 294 -22 32 -38 63 -35 67 3 5 1 9 -3 9 -5 0 -15
17 -22 38 -8 20 -38 64 -67 97 -32 35 -62 82 -74 115 -22 59 -30 177 -14 220
7 19 10 5 15 -65 9 -131 35 -189 132 -288 77 -79 96 -107 42 -65 l-28 22 28
-50 c47 -82 169 -235 152 -190 -4 9 -16 49 -28 89 -12 40 -28 79 -35 88 -20
23 -19 24 31 24 34 0 44 -3 40 -14 -6 -14 36 -171 45 -171 11 0 42 129 35 149
-7 22 -25 29 -25 9 0 -19 -14 1 -15 22 -1 16 2 17 17 9 11 -6 34 -10 51 -9 46
3 51 1 39 -13 -9 -11 2 -61 34 -147 4 -8 17 21 29 65 17 57 21 83 13 92 -8 10
-3 13 22 13 21 0 30 -4 27 -12 -3 -7 -24 -71 -47 -143 -23 -71 -46 -134 -50
-139 -5 -5 -23 38 -41 94 l-32 102 -30 -91 -29 -91 23 -20 c45 -37 204 -110
284 -131 211 -54 461 -10 646 115 72 48 45 46 -39 -3 -37 -22 -110 -54 -162
-72 -81 -27 -113 -33 -220 -37 -104 -3 -140 -1 -215 17 -123 30 -314 125 -293
146 4 4 33 -9 65 -29 225 -138 521 -150 768 -31 99 48 108 55 100 88 -6 24
-12 27 -50 27 -38 0 -44 -3 -49 -26 -4 -14 -4 -33 -1 -42 4 -15 -5 -17 -93
-13 -56 2 -86 7 -72 10 19 5 26 14 28 38 3 31 3 32 -27 20 -22 -8 -31 -18 -33
-40 l-3 -28 -103 -2 c-96 -2 -127 4 -82 16 19 5 20 14 20 122 0 100 -3 120
-17 131 -16 12 -10 13 42 13 53 0 58 -1 42 -13 -15 -12 -17 -28 -15 -127 l3
-114 48 -3 c37 -2 47 0 47 12 0 9 -5 16 -11 16 -28 0 2 26 42 35 l44 11 3 82
c2 67 0 83 -13 88 -30 12 -14 19 45 19 60 0 77 -8 40 -20 -19 -6 -20 -15 -20
-125 0 -65 4 -121 9 -124 20 -13 43 27 84 144 24 69 48 124 52 123 4 -1 28
-53 52 -115 24 -62 46 -115 49 -117 7 -8 83 70 131 133 47 63 51 82 9 43 -40
-38 -123 -57 -168 -39 -16 6 -16 10 -3 35 13 25 13 27 -8 28 -12 1 -25 1 -29
0 -15 -2 -7 16 16 38 15 14 23 31 21 43 -7 35 -13 32 -25 -11 -11 -43 -26 -53
-37 -24 -10 25 44 119 95 164 25 22 77 55 116 75 58 28 86 36 157 41 l86 6 1
58 c1 67 -10 77 -24 22 -12 -47 -34 -56 -34 -14 0 31 14 42 23 19 4 -8 6 -7 6
3 1 9 -5 22 -13 28 -15 13 -32 115 -28 166 2 23 0 27 -7 15 -6 -8 -11 -11 -11
-6 0 5 8 18 17 28 21 23 14 45 -49 156 -86 151 -264 303 -433 368 -109 43
-139 50 -132 30 4 -9 2 -16 -3 -16 -6 0 -10 7 -10 15 0 8 -6 15 -12 15 -7 0
-23 3 -36 6 -18 5 -21 3 -16 -10 5 -12 2 -15 -10 -10 -9 3 -16 12 -16 20 0 8
-7 14 -15 14 -8 0 -15 -9 -15 -20 0 -11 -6 -20 -13 -20 -8 0 -13 10 -13 21 1
31 -18 34 -33 5 -16 -28 -51 -24 -51 6 0 10 -4 17 -9 14 -5 -3 -7 -15 -4 -26
3 -12 0 -20 -7 -20 -6 0 -14 8 -17 18 -6 26 -53 17 -53 -9 0 -11 -5 -19 -11
-19 -6 0 -9 7 -5 15 23 62 -273 -62 -404 -168 -127 -104 -251 -282 -236 -342
6 -23 10 -18 46 52 110 214 314 367 557 417 184 39 348 26 518 -41 89 -35 215
-109 231 -135 5 -8 -2 -6 -19 5 -61 39 -135 81 -187 104 -145 64 -338 87 -498
59 -305 -53 -524 -238 -611 -514 l-18 -56 -22 48 c-11 27 -21 59 -21 71 0 54
73 178 159 269 115 121 249 201 418 252 77 23 107 27 238 28 127 1 163 -3 235
-22 231 -61 446 -226 547 -419 16 -29 32 -48 36 -44 17 17 -66 154 -138 230
-119 126 -251 206 -422 257 -108 32 -317 42 -423 20z m435 -172 c72 -22 145
-56 145 -67 0 -5 -6 -7 -14 -4 -8 3 -27 2 -43 -2 l-28 -8 30 -8 c17 -3 42 -11
57 -17 16 -6 38 -8 50 -5 32 9 97 -24 142 -71 22 -23 42 -39 46 -37 4 3 16 -5
26 -18 l19 -22 -22 19 c-28 23 -30 13 -4 -22 75 -108 131 -273 134 -400 2 -81
-6 -109 -23 -82 -8 12 -10 12 -10 -4 0 -11 -2 -17 -5 -14 -3 2 -7 54 -10 114
-5 136 -23 206 -24 99 -2 -119 -39 -222 -88 -244 -19 -9 -23 -8 -17 1 4 7 -1
6 -12 -3 -40 -34 -45 -30 -20 17 14 27 26 56 25 64 0 8 -5 2 -11 -13 -6 -17
-15 -26 -24 -23 -13 5 -17 -4 -29 -61 -4 -22 -29 -55 -71 -98 -45 -45 -64 -72
-64 -90 0 -14 -5 -25 -10 -25 -6 0 -8 12 -5 28 5 25 5 25 -4 5 -11 -25 -31
-31 -31 -10 0 14 27 93 40 117 5 10 34 34 63 53 54 36 83 64 75 72 -2 2 -17
-7 -32 -20 -16 -14 -32 -25 -36 -25 -3 0 -24 -16 -46 -35 -21 -19 -40 -31 -42
-25 -2 5 2 34 8 64 11 53 13 56 63 80 61 28 94 56 130 108 19 29 26 34 31 22
3 -9 4 -28 1 -42 -5 -24 -4 -24 6 3 6 17 13 37 16 45 3 10 9 4 19 -19 8 -19
17 -31 20 -28 4 3 -6 27 -21 52 -20 35 -29 67 -35 128 -8 83 -23 137 -38 137
-4 0 -8 10 -9 23 -1 12 -9 27 -19 32 -9 6 -32 22 -51 38 -20 15 -42 27 -49 27
-8 0 -14 4 -14 9 0 4 -11 6 -24 4 -19 -4 -28 1 -40 26 -9 17 -20 31 -24 31 -5
0 -18 9 -30 20 -12 12 -22 18 -22 16 0 -3 -15 3 -32 14 -18 11 -39 20 -47 20
-17 0 -141 71 -141 80 0 10 117 -8 175 -26z m-190 -16 c17 -6 49 -24 73 -40
24 -15 54 -28 67 -28 33 0 90 -52 109 -101 15 -38 18 -40 50 -34 41 8 85 -12
118 -55 12 -17 35 -46 50 -64 15 -18 32 -53 37 -77 32 -138 -14 -226 -148
-285 -82 -36 -86 -23 -6 20 39 20 79 49 90 64 l19 27 -33 -28 c-42 -35 -129
-79 -144 -74 -7 2 7 16 31 32 23 15 40 30 37 33 -3 3 1 12 8 21 6 8 -1 5 -18
-7 -90 -68 -117 -84 -126 -75 -6 6 -3 15 7 24 15 12 17 12 9 0 -5 -10 -4 -12
4 -7 6 4 9 11 6 16 -3 5 22 34 55 65 70 67 110 141 109 199 l-1 41 -10 -30
c-11 -31 -61 -103 -154 -220 -56 -70 -83 -94 -70 -60 5 15 4 16 -9 5 -32 -26
-26 1 15 77 24 43 45 91 47 108 3 29 3 29 -11 9 -8 -12 -16 -27 -18 -35 -3
-15 -7 -21 -41 -64 -13 -16 -22 -35 -20 -41 2 -6 -6 -19 -17 -29 -11 -10 -20
-15 -20 -10 0 4 -7 2 -15 -5 -22 -18 -18 -5 10 38 53 80 85 222 71 316 -9 60
-21 59 -24 -3 -2 -42 -91 -334 -107 -350 -15 -14 -20 25 -14 110 3 51 2 109
-1 129 -5 30 -8 22 -18 -50 -7 -47 -12 -106 -12 -132 0 -41 -3 -48 -20 -48
-19 0 -20 7 -21 153 -1 83 -4 181 -8 217 -6 64 -6 63 -14 -50 -4 -63 -7 -161
-7 -217 0 -94 -2 -103 -19 -103 -15 0 -21 15 -35 107 -9 59 -20 111 -24 115
-8 8 3 -159 12 -198 5 -17 1 -23 -18 -26 -22 -4 -25 -1 -31 41 -4 25 -22 106
-41 178 -19 73 -34 154 -34 180 -1 40 -2 45 -12 29 -17 -29 -3 -180 25 -276
28 -97 42 -168 31 -158 -4 4 -13 3 -19 -2 -9 -8 -18 6 -34 52 -13 35 -31 86
-42 113 l-18 50 6 -45 c3 -25 9 -49 13 -55 4 -5 10 -24 13 -41 3 -18 9 -45 13
-60 7 -26 6 -28 -10 -15 -14 12 -16 12 -10 -3 12 -30 -11 -16 -25 16 -8 18
-39 68 -68 111 -73 108 -93 149 -93 199 -1 36 -2 40 -12 24 -15 -26 -3 -108
25 -169 13 -29 49 -83 80 -121 53 -63 69 -93 49 -84 -5 2 -39 38 -76 81 -37
42 -69 77 -72 77 -2 0 17 -27 44 -59 56 -70 91 -128 71 -116 -8 5 -27 18 -44
30 -88 65 -117 72 -35 9 77 -59 59 -61 -26 -3 -63 42 -73 46 -58 24 9 -14 39
-38 67 -51 57 -29 58 -42 1 -18 -92 38 -153 99 -174 175 -11 38 10 171 35 219
26 51 63 80 101 80 25 0 34 4 34 17 0 26 46 98 72 110 44 21 60 23 99 13 36
-10 43 -8 82 19 54 37 154 72 187 65 14 -3 39 -11 55 -16z m682 -356 c20 -40
34 -74 32 -76 -2 -2 -25 40 -51 93 -26 53 -41 87 -32 76 9 -11 32 -53 51 -93z
m-572 -298 c104 -22 216 -78 201 -102 -4 -7 -15 -2 -31 13 -32 29 -126 64
-191 72 -139 16 -260 14 -351 -6 -96 -21 -193 -57 -193 -72 0 -13 12 -11 55 7
165 69 450 71 628 4 l57 -21 0 -94 c0 -73 -3 -94 -15 -99 -8 -3 -14 0 -12 6 4
19 -104 46 -226 57 -156 15 -337 -4 -434 -44 -20 -8 -37 -15 -39 -15 -2 0 -4
39 -4 87 0 64 -4 91 -16 104 -14 15 -13 19 14 37 106 76 366 106 557 66z
m-1030 -94 c5 -24 4 -32 -3 -25 -6 6 -13 28 -17 50 -8 49 9 28 20 -25z m1063
-176 c88 -18 122 -38 70 -42 -17 -1 -45 2 -63 8 -89 30 -331 29 -458 -1 -49
-12 -88 -6 -71 11 36 36 385 52 522 24z m-1076 -53 c14 -84 92 -237 168 -331
l20 -25 21 24 c19 23 21 23 37 7 16 -16 16 -19 1 -45 -16 -27 -16 -30 -1 -45
9 -9 11 -16 6 -16 -15 0 -102 94 -141 150 -45 67 -98 176 -122 254 -25 80 -25
79 -9 74 7 -3 16 -24 20 -47z m978 -6 c41 -3 91 -10 110 -14 20 -4 46 -6 60
-4 24 3 40 -10 40 -36 0 -9 -4 -10 -12 -3 -36 29 -129 21 -141 -12 -3 -7 -2
-43 2 -80 7 -66 6 -69 -18 -84 -14 -9 -30 -22 -36 -28 -5 -7 -19 -15 -31 -18
-20 -6 -21 -3 -17 61 1 38 5 83 8 102 6 50 -9 71 -53 71 -60 0 -80 -10 -91
-43 -10 -27 -13 -29 -29 -15 -9 8 -24 19 -32 23 -28 16 12 -27 44 -46 26 -16
29 -23 32 -79 2 -33 -1 -58 -6 -55 -5 3 -11 1 -15 -5 -3 -5 2 -10 12 -10 14 0
15 -2 4 -9 -17 -11 -43 -3 -35 10 2 5 0 18 -6 29 -6 12 -7 20 -1 20 5 0 11 -6
14 -12 2 -7 7 -11 10 -8 6 6 -75 149 -99 173 -23 23 -43 22 -64 -4 l-18 -20
-7 20 c-3 12 -11 21 -16 21 -5 0 -9 9 -9 19 0 16 10 20 63 26 132 16 213 22
237 19 14 -2 59 -6 100 -9z m266 -71 l6 -39 -22 25 c-27 31 -50 82 -43 93 11
18 54 -40 59 -79z m-1139 -21 c24 -53 26 -60 14 -43 -9 13 -11 11 -11 -6 0
-12 -7 -24 -15 -28 -20 -7 -19 13 0 34 14 15 14 18 1 23 -8 3 -17 -1 -20 -9
-3 -9 -11 -12 -16 -9 -17 10 10 37 29 30 13 -5 14 -4 4 6 -13 13 -18 39 -8 39
3 0 12 -17 22 -37z m602 -98 c23 -60 50 -122 62 -137 l20 -28 -53 0 c-31 0
-48 4 -40 8 9 6 10 16 2 39 -10 27 -16 31 -50 31 -35 1 -39 -2 -45 -30 -5 -21
-3 -33 6 -39 21 -12 8 -15 -41 -8 -25 3 -38 7 -29 7 18 2 29 23 75 152 19 52
37 101 39 109 8 20 9 17 54 -104z m502 91 c6 3 7 -5 3 -23 -9 -37 -13 -43 -29
-43 -14 0 -14 27 0 70 7 20 10 21 13 7 2 -9 8 -15 13 -11z m-981 -37 c0 -14
-7 -11 -35 16 -34 35 -32 41 5 15 17 -12 30 -26 30 -31z m1408 -34 c-11 -12
-43 19 -34 34 4 7 13 4 25 -7 10 -10 14 -21 9 -27z m-1460 -59 c23 -38 24 -40
6 -53 -26 -19 -40 -16 -20 6 9 10 14 25 10 35 -8 20 -24 21 -24 1 0 -8 -5 -15
-10 -15 -18 0 -23 29 -9 47 11 13 11 17 2 20 -7 3 -13 9 -13 15 0 17 30 -13
58 -56z m1009 17 c-14 -15 -30 -23 -34 -19 -4 4 5 19 21 32 37 32 48 21 13
-13z m252 20 c-19 -25 -47 -53 -54 -53 -3 0 -5 6 -5 14 0 8 -5 16 -12 18 -25
9 5 30 33 24 15 -3 31 -1 34 4 3 6 9 10 12 10 3 0 -1 -8 -8 -17z m171 -35 c0
-4 -9 -8 -20 -8 -15 0 -20 7 -20 27 0 25 0 26 20 8 11 -10 20 -22 20 -27z
m-891 -156 c16 -6 34 -6 42 -1 17 11 76 12 83 1 2 -4 53 -4 113 0 83 5 111 4
122 -7 11 -11 7 -15 -20 -24 -52 -16 -170 -28 -246 -24 -91 5 -100 7 -155 22
-47 13 -58 24 -37 36 5 4 15 18 20 32 l9 25 20 -25 c11 -14 33 -29 49 -35z
m-386 -12 c5 -4 1 -20 -8 -34 -20 -31 -10 -51 10 -22 8 10 16 24 18 30 2 6 8
8 12 4 4 -4 0 -20 -10 -34 -17 -26 -17 -28 1 -41 24 -18 29 -17 44 12 7 14 17
25 20 25 17 0 30 -30 28 -61 -4 -43 25 -49 30 -6 2 16 -1 27 -9 27 -7 0 -10 3
-7 6 3 3 23 -2 44 -11 29 -12 35 -18 26 -27 -20 -20 -14 -55 10 -61 29 -8 38
-1 38 29 0 33 20 27 40 -12 14 -27 15 -28 18 -6 6 36 18 25 14 -13 -5 -40 -23
-45 -45 -12 -14 19 -16 20 -16 4 -1 -14 -6 -17 -23 -11 -55 17 -68 25 -68 41
0 14 -2 15 -9 5 -7 -12 -14 -11 -38 2 -32 16 -49 42 -31 48 6 2 8 13 6 23 -4
17 -6 16 -16 -8 -14 -34 -37 -30 -94 16 l-38 31 22 24 23 24 -26 -7 c-28 -7
-45 7 -33 26 6 11 52 4 67 -11z m886 -147 c11 -40 7 -53 -11 -35 -16 16 -29
15 -22 -2 6 -16 -29 -31 -47 -20 -7 4 -9 3 -6 -3 7 -11 -13 -23 -36 -23 -8 0
-7 4 2 9 10 6 12 20 8 45 -3 20 -3 36 0 36 4 0 19 -15 34 -32 22 -26 28 -29
29 -15 0 10 -5 27 -10 38 -12 22 -7 24 22 8 18 -9 19 -8 13 10 -3 12 -2 21 4
21 5 0 15 -17 20 -37z m-473 -40 c-3 -8 -6 -19 -6 -24 0 -5 -7 -9 -15 -9 -8 0
-15 -5 -15 -11 0 -6 7 -9 15 -5 8 3 15 1 15 -4 0 -6 -14 -10 -31 -10 -27 0
-30 2 -23 23 5 12 8 31 7 43 -1 17 4 19 29 16 21 -3 28 -9 24 -19z m309 -8
c-3 -43 -10 -52 -30 -35 -12 10 -15 10 -15 -4 0 -9 -4 -16 -10 -16 -5 0 -10
18 -10 40 0 45 11 51 35 18 l17 -23 -5 28 c-3 17 0 27 8 27 7 0 11 -13 10 -35z
m-229 7 c7 -4 14 -18 15 -32 3 -17 11 -26 28 -28 22 -3 23 -1 18 30 -4 29 -2
33 19 34 19 2 26 -5 34 -34 12 -44 6 -51 -22 -26 -19 17 -21 17 -15 1 6 -15
-1 -17 -71 -15 -42 1 -69 3 -59 6 15 3 18 11 15 38 -4 34 10 44 38 26z"/>
<path d="M2135 1925 c25 -31 45 -64 45 -75 0 -10 5 -22 11 -26 13 -8 5 25 -17
67 -17 35 -63 89 -75 89 -5 0 11 -25 36 -55z"/>
<path d="M2207 1734 c4 -39 2 -46 -7 -34 -10 13 -11 12 -6 -3 3 -10 6 -28 7
-40 1 -20 2 -20 9 3 11 34 12 92 1 109 -5 8 -7 -5 -4 -35z"/>
<path d="M1811 1484 c20 -22 19 -102 -1 -114 -8 -5 -23 -5 -34 0 -12 4 -64 10
-116 13 l-95 6 90 -14 c50 -8 110 -22 134 -30 25 -8 46 -15 48 -15 2 0 3 34 3
75 0 67 -2 75 -22 86 -22 11 -22 11 -7 -7z"/>
<path d="M1281 1065 c-6 -16 -14 -36 -16 -42 -3 -9 6 -13 25 -13 27 0 28 2 20
28 -5 15 -10 34 -13 42 -3 10 -8 5 -16 -15z"/>
<path d="M635 2106 l-30 -12 25 -7 c15 -4 21 -10 15 -14 -31 -23 -113 -234
-135 -348 -8 -38 -20 -67 -34 -80 -12 -11 -17 -17 -11 -13 20 13 26 -4 8 -24
-14 -16 -14 -18 -1 -18 13 0 17 -21 21 -122 4 -68 9 -140 13 -160 5 -30 3 -38
-9 -38 -8 0 -21 -8 -28 -17 -13 -16 -12 -17 3 -5 9 8 23 10 29 6 9 -5 7 -11
-7 -22 -18 -13 -17 -14 9 -8 20 5 27 3 27 -9 0 -8 4 -23 9 -33 9 -16 20 -47
21 -57 0 -3 11 -30 24 -60 35 -79 105 -182 165 -243 41 -42 50 -57 41 -67 -7
-8 -9 -19 -5 -25 8 -13 42 -13 47 1 2 5 21 -3 43 -19 22 -15 54 -35 70 -44 90
-47 121 -64 125 -70 3 -4 15 -9 25 -11 54 -10 145 -41 145 -49 0 -5 4 -7 9 -4
4 3 43 -1 86 -9 42 -8 99 -16 126 -17 36 -2 49 -6 49 -17 0 -12 2 -12 12 1 9
11 36 18 83 21 117 10 215 32 285 66 23 11 46 18 50 16 4 -3 13 2 20 10 7 8
17 15 22 15 5 0 46 24 90 54 69 46 84 52 100 43 16 -10 22 -9 33 7 10 14 12
23 4 32 -7 9 -3 20 16 41 63 68 72 80 93 109 12 17 19 34 15 38 -3 3 1 6 11 6
9 0 14 5 11 10 -3 6 0 13 9 16 8 3 12 12 9 20 -3 7 2 16 10 20 9 3 13 12 10
21 -4 11 -2 14 5 9 7 -4 12 -6 12 -4 0 2 15 48 34 103 36 105 52 178 60 284 6
64 9 72 55 125 l26 30 -25 -16 c-47 -29 -60 -60 -75 -170 -35 -267 -158 -487
-365 -651 -82 -66 -257 -154 -355 -180 -394 -105 -828 43 -1065 363 -60 80
-130 226 -160 330 -31 106 -39 335 -16 450 27 133 79 262 140 353 40 58 32 69
-29 43z"/>
<path d="M2300 2116 c0 -2 20 -37 45 -77 60 -97 103 -210 129 -341 17 -82 25
-105 35 -99 7 5 23 7 35 5 16 -3 15 -1 -5 8 -28 12 -42 44 -55 128 -9 58 -56
185 -100 274 -25 50 -32 71 -23 77 8 5 5 10 -9 18 -20 11 -52 15 -52 7z"/>
<path d="M2250 2097 c0 -2 15 -29 33 -60 56 -93 102 -207 88 -217 -9 -5 -10
-10 -2 -14 6 -4 11 -2 11 4 0 6 5 8 11 4 8 -4 9 1 4 17 -19 69 -145 299 -145
266z"/>
<path d="M2348 1981 c8 -4 13 -12 13 -17 -3 -22 42 -123 52 -117 8 5 7 8 -1
11 -7 2 -12 13 -12 25 -1 32 -37 107 -52 107 -10 0 -10 -2 0 -9z"/>
<path d="M2406 1808 c-8 -32 -6 -47 3 -23 7 16 11 7 21 -38 6 -32 16 -86 20
-119 5 -33 12 -63 16 -67 4 -3 4 17 0 44 -3 28 -9 76 -13 108 -3 31 -10 57
-15 57 -6 0 -8 7 -4 15 3 8 1 15 -4 15 -5 0 -7 7 -4 15 4 8 2 15 -4 15 -5 0
-12 -10 -16 -22z"/>
<path d="M556 1755 c4 -30 3 -36 -5 -25 -9 11 -10 4 -5 -30 4 -32 3 -41 -5
-30 -7 10 -9 -2 -5 -45 3 -42 2 -54 -5 -40 -7 14 -10 -3 -10 -63 -1 -57 2 -81
10 -77 7 5 8 -7 3 -40 -5 -33 -3 -46 4 -41 7 4 9 -5 5 -30 -4 -25 -3 -35 5
-31 6 4 8 0 6 -10 -3 -10 7 -49 21 -86 133 -354 400 -578 765 -642 245 -43
515 18 730 166 117 80 251 239 314 373 60 126 103 313 78 338 -9 9 -12 4 -12
-22 -1 -53 -35 -198 -64 -270 -82 -200 -249 -381 -444 -479 -165 -83 -368
-122 -536 -102 -434 51 -752 337 -842 756 -18 83 -20 275 -5 362 8 41 8 68 1
84 -8 20 -9 17 -4 -16z"/>
<path d="M2381 1780 c0 -8 6 -46 14 -85 8 -38 15 -89 15 -113 0 -40 1 -42 16
-27 12 12 15 28 11 63 -3 25 -9 48 -15 50 -5 1 -7 13 -4 25 3 12 1 18 -4 14
-5 -5 -14 13 -20 40 -6 26 -12 41 -13 33z"/>
<path d="M701 1653 c0 -5 15 -37 32 -73 29 -59 35 -65 71 -72 49 -10 133 -58
203 -115 29 -24 53 -39 53 -33 0 18 -71 89 -112 112 -22 13 -46 34 -54 48
l-14 25 6 -30 c9 -40 -2 -28 -20 21 -8 21 -15 31 -15 22 -1 -10 -8 -18 -16
-18 -7 0 -19 8 -24 18 -9 15 -10 14 -11 -8 0 -18 -3 -21 -9 -12 -4 8 -12 13
-16 12 -12 -3 -56 83 -50 98 2 6 -2 12 -10 12 -8 0 -15 -3 -14 -7z"/>
<path d="M2138 1383 c-25 -29 -40 -63 -34 -79 3 -7 -3 -18 -12 -23 -16 -10
-16 -10 1 -11 9 0 18 5 18 10 2 13 6 29 9 33 1 1 3 10 5 20 2 10 11 29 19 43
19 28 16 32 -6 7z"/>
<path d="M930 1365 c0 -8 3 -15 8 -15 4 0 16 -16 26 -35 11 -19 21 -34 23 -32
4 4 -47 97 -53 97 -2 0 -4 -7 -4 -15z"/>
<path d="M2063 1358 c-15 -19 -35 -84 -31 -104 2 -9 -3 -19 -11 -22 -8 -3 -11
0 -7 7 4 6 3 11 -3 11 -5 0 -13 -4 -16 -10 -3 -5 -1 -10 6 -10 7 0 1 -13 -14
-28 l-27 -28 29 -2 c25 -2 28 1 23 23 -3 19 0 25 14 25 11 0 28 7 38 15 19 15
19 15 -3 15 -15 0 -20 4 -14 13 4 6 8 17 8 22 1 10 22 61 31 76 8 14 -12 10
-23 -3z"/>
<path d="M1004 1305 c2 -27 8 -51 15 -53 14 -5 13 24 -4 68 l-14 35 3 -50z"/>
<path d="M2189 1123 c-13 -21 -55 -72 -93 -113 -39 -41 -55 -61 -36 -45 59 49
176 195 157 195 -3 0 -16 -17 -28 -37z"/>
<path d="M1883 1050 c-10 -40 -10 -40 18 -40 16 0 29 3 29 7 0 14 -24 73 -30
73 -3 0 -11 -18 -17 -40z"/>
<path d="M2003 842 c-8 -5 -7 -14 7 -32 14 -19 22 -22 30 -14 9 9 9 17 1 33
-13 23 -19 25 -38 13z"/>
</g>
</svg>
